{"images":[{"uri":"baseColor_1.jpg","name":"baseColor_1.jpg"},{"uri":"baseColor_2.jpg","name":"baseColor_2.jpg"},{"uri":"baseColor_3.jpg","name":"baseColor_3.jpg"}],"accessors":[{"componentType":5126,"max":[377.1324462890625,339.6155700683594,1746.108642578125],"bufferView":0,"count":4856,"type":"VEC3","min":[-408.4861755371094,-673.286376953125,62.254432678222656],"byteOffset":0},{"componentType":5126,"bufferView":0,"count":4856,"type":"VEC3","byteOffset":12},{"componentType":5126,"bufferView":0,"count":4856,"type":"VEC2","byteOffset":24},{"componentType":5125,"bufferView":1,"count":25380,"type":"SCALAR","byteOffset":0},{"componentType":5125,"bufferView":1,"count":74178,"type":"SCALAR","byteOffset":101520},{"componentType":5125,"bufferView":1,"count":23838,"type":"SCALAR","byteOffset":398232},{"componentType":5125,"bufferView":1,"count":117288,"type":"SCALAR","byteOffset":493584},{"componentType":5126,"max":[428.3314514160156,398.66864013671875,1898.520751953125],"bufferView":2,"count":14037,"type":"VEC3","min":[-448.0148010253906,-733.112060546875,-36.39366912841797],"byteOffset":0},{"componentType":5126,"bufferView":2,"count":14037,"type":"VEC3","byteOffset":12},{"componentType":5126,"bufferView":2,"count":14037,"type":"VEC2","byteOffset":24},{"componentType":5126,"max":[-44.62908935546875,465.8072204589844,1750.0291748046875],"bufferView":3,"count":4716,"type":"VEC3","min":[-684.2489013671875,-61.12821960449219,1180.9952392578125],"byteOffset":0},{"componentType":5126,"bufferView":3,"count":4716,"type":"VEC3","byteOffset":12},{"componentType":5126,"bufferView":3,"count":4716,"type":"VEC2","byteOffset":24},{"componentType":5126,"max":[430.45965576171875,400.78729248046875,1900.7822265625],"bufferView":4,"count":22387,"type":"VEC3","min":[-463.2217712402344,-735.03076171875,-38.11374282836914],"byteOffset":0},{"componentType":5126,"bufferView":4,"count":22387,"type":"VEC3","byteOffset":12},{"componentType":5126,"bufferView":4,"count":22387,"type":"VEC2","byteOffset":24}],"extensionsUsed":["KHR_materials_unlit"],"textures":[{"source":0,"sampler":0},{"source":1,"sampler":0},{"source":2,"sampler":0}],"buffers":[{"byteLength":2434608,"uri":"97d40f2d7d37446789ec1f1dda3d22bf.bin"}],"bufferViews":[{"byteLength":155392,"byteStride":32,"target":34962,"byteOffset":0,"buffer":0},{"byteLength":962736,"target":34963,"byteOffset":155392,"buffer":0},{"byteLength":449184,"byteStride":32,"target":34962,"byteOffset":1118128,"buffer":0},{"byteLength":150912,"byteStride":32,"target":34962,"byteOffset":1567312,"buffer":0},{"byteLength":716384,"byteStride":32,"target":34962,"byteOffset":1718224,"buffer":0}],"samplers":[{"magFilter":9729,"minFilter":9987}],"scene":0,"nodes":[{"rotation":[0.705199935019878,0,0,0.7090084989955763],"children":[1],"name":"Sketchfab_model","translation":[-0.3017338391829023,0.22684964093842086,0.0685234887574886]},{"rotation":[1,0,0,0],"scale":[0.10000000149011612,0.10000000149011612,0.10000000149011612],"children":[2],"name":"9ae346b983654c6c94df5c4e171b56e0.fbx"},{"children":[3,5,7,9],"name":"RootNode"},{"scale":[0.10000000149011612,0.10000000149011612,0.10000000149011612],"children":[4],"name":"body","translation":[4.655444145202637,16.884634017944336,1.5411090850830078]},{"name":"body_Material #212_0","mesh":0},{"scale":[0.10000000149011612,0.10000000149011612,0.10000000149011612],"children":[6],"name":"clo","translation":[4.655444145202637,16.884634017944336,1.5411090850830078]},{"name":"clo_Material #211_0","mesh":1},{"scale":[0.10000000149011612,0.10000000149011612,0.10000000149011612],"children":[8],"name":"hair","translation":[26.9862060546875,-24.461833953857422,7.758693695068359]},{"name":"hair_Material #210_0","mesh":2},{"scale":[0.10000000149011612,0.10000000149011612,0.10000000149011612],"children":[10],"name":"clo001","translation":[4.655444145202637,16.884634017944336,1.5411090850830078]},{"name":"clo001_w_0","mesh":3}],"materials":[{"pbrMetallicRoughness":{"baseColorFactor":[1,1,1,1],"baseColorTexture":{"index":0}},"extensions":{"KHR_materials_unlit":{}},"name":"Material_212"},{"pbrMetallicRoughness":{"baseColorFactor":[1,1,1,1],"baseColorTexture":{"index":1}},"extensions":{"KHR_materials_unlit":{}},"name":"Material_211","doubleSided":true},{"pbrMetallicRoughness":{"baseColorFactor":[1,1,1,1],"baseColorTexture":{"index":2}},"extensions":{"KHR_materials_unlit":{}},"name":"Material_210"},{"pbrMetallicRoughness":{"baseColorFactor":[0.0509804,0.0509804,0.0509804,1]},"extensions":{"KHR_materials_unlit":{}},"name":"material"}],"scenes":[{"nodes":[0],"name":"Sketchfab_Scene"}],"asset":{"generator":"CG美术之家","source":"https://www.cgmszj.com/model/119864.html","version":"2.0"},"meshes":[{"primitives":[{"mode":4,"indices":3,"material":0,"attributes":{"POSITION":0,"TEXCOORD_0":2,"NORMAL":1}}],"name":"body_Material #212_0"},{"primitives":[{"mode":4,"indices":4,"material":1,"attributes":{"POSITION":7,"TEXCOORD_0":9,"NORMAL":8}}],"name":"clo_Material #211_0"},{"primitives":[{"mode":4,"indices":5,"material":2,"attributes":{"POSITION":10,"TEXCOORD_0":12,"NORMAL":11}}],"name":"hair_Material #210_0"},{"primitives":[{"mode":4,"indices":6,"material":3,"attributes":{"POSITION":13,"TEXCOORD_0":15,"NORMAL":14}}],"name":"clo001_w_0"}]}