{"images":[{"uri":"baseColor_2.jpg","name":"baseColor_2.jpg"},{"uri":"baseColor_3.jpg","name":"baseColor_3.jpg"},{"uri":"baseColor_1.jpg","name":"baseColor_1.jpg"},{"uri":"baseColor_4.jpg","name":"baseColor_4.jpg"},{"uri":"baseColor_5.jpg","name":"baseColor_5.jpg"},{"uri":"baseColor_7.jpg","name":"baseColor_7.jpg"},{"uri":"baseColor_6.png","name":"baseColor_6.png"}],"accessors":[{"componentType":5126,"max":[38623.828125,57723.06640625,19376.357421875],"bufferView":0,"count":5447,"type":"VEC3","min":[25.13671875,7049.71484375,0],"byteOffset":0},{"componentType":5126,"bufferView":0,"count":5447,"type":"VEC3","byteOffset":12},{"componentType":5126,"bufferView":0,"count":5447,"type":"VEC2","byteOffset":24},{"componentType":5125,"bufferView":1,"count":22341,"type":"SCALAR","byteOffset":0},{"componentType":5125,"bufferView":1,"count":294,"type":"SCALAR","byteOffset":89364},{"componentType":5125,"bufferView":1,"count":168,"type":"SCALAR","byteOffset":90540},{"componentType":5125,"bufferView":1,"count":2856,"type":"SCALAR","byteOffset":91212},{"componentType":5125,"bufferView":1,"count":5973,"type":"SCALAR","byteOffset":102636},{"componentType":5125,"bufferView":1,"count":588,"type":"SCALAR","byteOffset":126528},{"componentType":5125,"bufferView":1,"count":96,"type":"SCALAR","byteOffset":128880},{"componentType":5125,"bufferView":1,"count":25218,"type":"SCALAR","byteOffset":129264},{"componentType":5126,"max":[24807.662109375,21020.42578125,8130.078125],"bufferView":2,"count":104,"type":"VEC3","min":[13841.384765625,16821.03515625,6145.08740234375],"byteOffset":0},{"componentType":5126,"bufferView":2,"count":104,"type":"VEC3","byteOffset":12},{"componentType":5126,"bufferView":2,"count":104,"type":"VEC2","byteOffset":24},{"componentType":5126,"max":[23668.18359375,16621.125,5584.68310546875],"bufferView":3,"count":40,"type":"VEC3","min":[14980.7900390625,15427.578125,4928.361328125],"byteOffset":0},{"componentType":5126,"bufferView":3,"count":40,"type":"VEC3","byteOffset":12},{"componentType":5126,"bufferView":3,"count":40,"type":"VEC2","byteOffset":24},{"componentType":5126,"max":[26329.849609375,24616.9375,12209.9462890625],"bufferView":4,"count":708,"type":"VEC3","min":[12319.1376953125,10258.24609375,4477.2392578125],"byteOffset":0},{"componentType":5126,"bufferView":4,"count":708,"type":"VEC3","byteOffset":12},{"componentType":5126,"bufferView":4,"count":708,"type":"VEC2","byteOffset":24},{"componentType":5126,"max":[34883.765625,40120.0703125,29100.1015625],"bufferView":5,"count":1691,"type":"VEC3","min":[4012.3681640625,5430.12109375,1117.5166015625],"byteOffset":0},{"componentType":5126,"bufferView":5,"count":1691,"type":"VEC3","byteOffset":12},{"componentType":5126,"bufferView":5,"count":1691,"type":"VEC2","byteOffset":24},{"componentType":5126,"max":[25777.697265625,10066.203125,29239.84375],"bufferView":6,"count":118,"type":"VEC3","min":[10845.1875,0,17363.1015625],"byteOffset":0},{"componentType":5126,"bufferView":6,"count":118,"type":"VEC3","byteOffset":12},{"componentType":5126,"bufferView":6,"count":118,"type":"VEC2","byteOffset":24},{"componentType":5126,"max":[21592.09375,23919.33203125,6621.3359375],"bufferView":7,"count":25,"type":"VEC3","min":[17056.94140625,20848.41015625,4477.2392578125],"byteOffset":0},{"componentType":5126,"bufferView":7,"count":25,"type":"VEC3","byteOffset":12},{"componentType":5126,"bufferView":7,"count":25,"type":"VEC2","byteOffset":24},{"componentType":5126,"max":[38648.96484375,57759.9921875,29121.484375],"bufferView":8,"count":6827,"type":"VEC3","min":[0,5380.296875,0],"byteOffset":0},{"componentType":5126,"bufferView":8,"count":6827,"type":"VEC3","byteOffset":12},{"componentType":5126,"bufferView":8,"count":6827,"type":"VEC2","byteOffset":24}],"extensionsUsed":["KHR_materials_unlit"],"textures":[{"source":0,"sampler":0},{"source":1,"sampler":0},{"source":2,"sampler":0},{"source":3,"sampler":0},{"source":4,"sampler":0},{"source":5,"sampler":0},{"source":6,"sampler":0}],"buffers":[{"byteLength":708856,"uri":"白洲梓.bin"}],"bufferViews":[{"byteLength":174304,"byteStride":32,"target":34962,"byteOffset":0,"buffer":0},{"byteLength":230136,"target":34963,"byteOffset":174304,"buffer":0},{"byteLength":3328,"byteStride":32,"target":34962,"byteOffset":404440,"buffer":0},{"byteLength":1280,"byteStride":32,"target":34962,"byteOffset":407768,"buffer":0},{"byteLength":22656,"byteStride":32,"target":34962,"byteOffset":409048,"buffer":0},{"byteLength":54112,"byteStride":32,"target":34962,"byteOffset":431704,"buffer":0},{"byteLength":3776,"byteStride":32,"target":34962,"byteOffset":485816,"buffer":0},{"byteLength":800,"byteStride":32,"target":34962,"byteOffset":489592,"buffer":0},{"byteLength":218464,"byteStride":32,"target":34962,"byteOffset":490392,"buffer":0}],"samplers":[{"magFilter":9729,"minFilter":9987}],"scene":0,"nodes":[{"rotation":[1,0,0,-0.0000000000000002220446049250313],"children":[1],"name":"Sketchfab_model","translation":[0.015625,54.1484375,4060.0087890624854]},{"children":[2],"name":"skfb_offset","translation":[-19324.498046875,-57705.84375,-10559.9130859375]},{"children":[3,4,5,6,7,8,9,10],"name":"Object_2"},{"name":"Object_3","mesh":0},{"name":"Object_4","mesh":1},{"name":"Object_5","mesh":2},{"name":"Object_6","mesh":3},{"name":"Object_7","mesh":4},{"name":"Object_8","mesh":5},{"name":"Object_9","mesh":6},{"name":"Object_10","mesh":7}],"materials":[{"pbrMetallicRoughness":{"baseColorFactor":[1,1,1,1],"baseColorTexture":{"index":2}},"extensions":{"KHR_materials_unlit":{}},"name":"body","doubleSided":true},{"pbrMetallicRoughness":{"baseColorFactor":[1,1,1,1],"baseColorTexture":{"index":0}},"extensions":{"KHR_materials_unlit":{}},"name":"material","doubleSided":true},{"pbrMetallicRoughness":{"baseColorFactor":[1,1,1,1],"baseColorTexture":{"index":1}},"extensions":{"KHR_materials_unlit":{}},"name":"eye_brow","doubleSided":true},{"pbrMetallicRoughness":{"baseColorFactor":[1,1,1,1],"baseColorTexture":{"index":1}},"extensions":{"KHR_materials_unlit":{}},"name":"face","doubleSided":true},{"pbrMetallicRoughness":{"baseColorFactor":[1,1,1,1],"baseColorTexture":{"index":3}},"extensions":{"KHR_materials_unlit":{}},"name":"hair","doubleSided":true},{"pbrMetallicRoughness":{"baseColorFactor":[1,1,1,1],"baseColorTexture":{"index":4}},"extensions":{"KHR_materials_unlit":{}},"name":"halo_glow","doubleSided":true},{"pbrMetallicRoughness":{"baseColorFactor":[1,1,1,1],"baseColorTexture":{"index":6}},"extensions":{"KHR_materials_unlit":{}},"name":"mouth_default","doubleSided":true,"alphaMode":"BLEND"},{"pbrMetallicRoughness":{"baseColorFactor":[1,1,1,1],"baseColorTexture":{"index":5}},"extensions":{"KHR_materials_unlit":{}},"name":"outline"}],"scenes":[{"nodes":[0],"name":"Sketchfab_Scene"}],"asset":{"generator":"CG美术之家","source":"https://www.cgmszj.com/model/125324.html","version":"2.0"},"meshes":[{"primitives":[{"mode":4,"indices":3,"material":0,"attributes":{"POSITION":0,"TEXCOORD_0":2,"NORMAL":1}}],"name":"Object_0"},{"primitives":[{"mode":4,"indices":4,"material":1,"attributes":{"POSITION":11,"TEXCOORD_0":13,"NORMAL":12}}],"name":"Object_1"},{"primitives":[{"mode":4,"indices":5,"material":2,"attributes":{"POSITION":14,"TEXCOORD_0":16,"NORMAL":15}}],"name":"Object_2"},{"primitives":[{"mode":4,"indices":6,"material":3,"attributes":{"POSITION":17,"TEXCOORD_0":19,"NORMAL":18}}],"name":"Object_3"},{"primitives":[{"mode":4,"indices":7,"material":4,"attributes":{"POSITION":20,"TEXCOORD_0":22,"NORMAL":21}}],"name":"Object_4"},{"primitives":[{"mode":4,"indices":8,"material":5,"attributes":{"POSITION":23,"TEXCOORD_0":25,"NORMAL":24}}],"name":"Object_5"},{"primitives":[{"mode":4,"indices":9,"material":6,"attributes":{"POSITION":26,"TEXCOORD_0":28,"NORMAL":27}}],"name":"Object_6"},{"primitives":[{"mode":4,"indices":10,"material":7,"attributes":{"POSITION":29,"TEXCOORD_0":31,"NORMAL":30}}],"name":"Object_7"}]}